<svg width="24" height="24" viewBox="0 0 24 24" fill="none" xmlns="http://www.w3.org/2000/svg">
<path fill-rule="evenodd" clip-rule="evenodd" d="M12 0C8.68497 0 5.99998 2.685 5.99998 6C5.99998 9.31499 8.68497 12 12 12C15.315 12 18 9.31499 18 6C18 2.685 15.315 0 12 0ZM15 5.99999C15 4.34999 13.65 2.99999 12 2.99999C10.35 2.99999 9 4.34999 9 5.99999C9 7.64999 10.35 8.99998 12 8.99998C13.65 8.99998 15 7.64999 15 5.99999ZM21 19.5C20.7 18.435 16.05 16.5 12 16.5C7.95002 16.5 3.30002 18.435 3.00002 19.515V21H21V19.5ZM0 19.5C0 15.51 7.995 13.5 12 13.5C16.005 13.5 24 15.51 24 19.5V24H0V19.5Z" fill="#909090"/>
</svg>
