<svg width="20" height="24" viewBox="0 0 20 24" fill="none" xmlns="http://www.w3.org/2000/svg">
<path fill-rule="evenodd" clip-rule="evenodd" d="M17.3846 16.6154V10.4615C17.3846 6.68308 15.3784 3.52 11.8461 2.68308V1.84615C11.8461 0.824615 11.0215 0 9.99996 0C8.97842 0 8.15381 0.824615 8.15381 1.84615V2.68308C4.63381 3.52 2.61535 6.67077 2.61535 10.4615V16.6154L0.153809 19.0769V20.3077H19.8461V19.0769L17.3846 16.6154ZM9.99996 24C11.3538 24 12.4615 22.8923 12.4615 21.5385H7.53842C7.53842 22.8923 8.64612 24 9.99996 24ZM5.07687 17.8462H14.923V10.4615C14.923 7.40924 13.0646 4.92309 9.99994 4.92309C6.93533 4.92309 5.07687 7.40924 5.07687 10.4615V17.8462Z" fill="#333333"/>
</svg>
