<svg width="27" height="24" viewBox="0 0 27 24" fill="none" xmlns="http://www.w3.org/2000/svg">
<path fill-rule="evenodd" clip-rule="evenodd" d="M19.7733 2.66667H24C25.4667 2.66667 26.6667 3.86667 26.6667 5.33333V21.3333C26.6667 22.8 25.4667 24 24 24H2.66667C1.2 24 0 22.8 0 21.3333V5.33333C0 3.86667 1.2 2.66667 2.66667 2.66667H6.89333L9.33333 0H17.3333L19.7733 2.66667ZM2.66666 21.3333H24V5.33333H18.6L17.8133 4.46666L16.16 2.66666H10.5067L8.85333 4.46666L8.06666 5.33333H2.66666V21.3333ZM13.3333 6.66667C9.65333 6.66667 6.66667 9.65333 6.66667 13.3333C6.66667 17.0133 9.65333 20 13.3333 20C17.0133 20 20 17.0133 20 13.3333C20 9.65333 17.0133 6.66667 13.3333 6.66667ZM9.06664 13.3333C9.06664 15.6933 10.9733 17.6 13.3333 17.6C15.6933 17.6 17.6 15.6933 17.6 13.3333C17.6 10.9733 15.6933 9.06664 13.3333 9.06664C10.9733 9.06664 9.06664 10.9733 9.06664 13.3333Z" fill="#909090"/>
</svg>
