<svg width="24" height="24" viewBox="0 0 24 24" fill="none" xmlns="http://www.w3.org/2000/svg">
<path fill-rule="evenodd" clip-rule="evenodd" d="M12 0C5.376 0 0 5.376 0 12C0 18.624 5.376 24 12 24C18.624 24 24 18.624 24 12C24 5.376 18.624 0 12 0ZM12 21.6C6.70799 21.6 2.39999 17.292 2.39999 12C2.39999 6.70799 6.70799 2.39999 12 2.39999C17.292 2.39999 21.6 6.70799 21.6 12C21.6 17.292 17.292 21.6 12 21.6ZM9.56398 8.964C9.56398 9.84 10.248 10.428 12.372 10.968C14.484 11.52 16.752 12.432 16.764 15.072C16.752 17.004 15.312 18.048 13.488 18.396V20.4H10.68V18.36C8.87998 17.988 7.36798 16.836 7.24798 14.796H9.31198C9.41998 15.9 10.176 16.764 12.096 16.764C14.148 16.764 14.616 15.732 14.616 15.096C14.616 14.232 14.148 13.404 11.808 12.852C9.20398 12.228 7.41598 11.148 7.41598 9C7.41598 7.188 8.86798 6.012 10.68 5.628V3.6H13.476V5.652C15.42 6.132 16.404 7.608 16.464 9.216H14.412C14.364 8.04 13.74 7.248 12.084 7.248C10.512 7.248 9.56398 7.956 9.56398 8.964Z" fill="#333333"/>
</svg>
